<svg width="540" height="500" viewBox="0 0 540 500" fill="none" xmlns="http://www.w3.org/2000/svg">
<g clip-path="url(#clip0_4_1693)">
<rect width="540" height="500" rx="10" fill="#02598A"/>
<path d="M193.704 268V267.808C194.941 265.931 196.413 262.603 198.12 257.824L209.192 227.616C209.533 226.72 209.704 225.867 209.704 225.056C209.704 224.032 209.448 223.029 208.936 222.048V221.92H215.72L229.8 258.912C231.208 262.837 232.595 265.803 233.96 267.808V268H224.872V267.744C225.043 267.104 225.128 266.4 225.128 265.632C225.128 263.712 224.616 261.429 223.592 258.784L221.16 252.256H202.792L201.064 257.056C200.125 259.659 199.656 262.005 199.656 264.096C199.656 265.419 199.827 266.635 200.168 267.744V268H193.704ZM220.264 249.888L211.816 227.424L203.688 249.888H220.264ZM238.017 267.808C238.828 264.309 239.233 261.429 239.233 259.168V245.152C239.233 242.891 238.828 240.011 238.017 236.512V236.32H244.417V259.168C244.417 261.429 244.822 264.309 245.633 267.808V268H238.017V267.808ZM238.849 221.856C239.617 221.131 240.534 220.768 241.601 220.768C242.71 220.768 243.649 221.152 244.417 221.92C245.185 222.645 245.569 223.541 245.569 224.608C245.569 225.675 245.185 226.592 244.417 227.36C243.649 228.085 242.71 228.448 241.601 228.448C240.534 228.448 239.617 228.085 238.849 227.36C238.081 226.592 237.697 225.675 237.697 224.608C237.697 223.541 238.081 222.624 238.849 221.856ZM251.629 221.472L252.845 221.344L258.413 220.448V259.168C258.413 261.429 258.818 264.309 259.629 267.808V268H251.885V267.808C252.695 264.309 253.101 261.429 253.101 259.168V230.112C253.101 226.784 252.631 223.989 251.693 221.728L251.629 221.472ZM259.629 250.656L266.605 244.512C269.165 242.208 270.445 240.139 270.445 238.304C270.445 237.707 270.317 237.131 270.061 236.576V236.32H278.957V236.576L264.685 248.928L279.469 267.744V268H272.941L259.629 250.656ZM282.115 259.104C282.115 255.477 283.608 252.875 286.595 251.296C289.624 249.675 292.654 248.864 295.683 248.864C297.091 248.864 298.584 249.013 300.163 249.312C301.016 249.44 301.678 249.589 302.147 249.76V245.536C302.147 243.147 301.55 241.312 300.355 240.032C299.203 238.752 297.731 238.112 295.939 238.112C294.062 238.112 291.928 238.944 289.539 240.608C287.192 242.229 285.422 243.829 284.227 245.408H284.035V238.56C288.387 236.811 292.419 235.936 296.131 235.936C299.63 235.936 302.382 236.789 304.387 238.496C306.435 240.16 307.459 242.507 307.459 245.536V262.176C307.459 263.584 307.736 264.501 308.291 264.928C308.888 265.312 309.464 265.504 310.019 265.504C310.488 265.504 310.979 265.419 311.491 265.248L311.555 265.44C310.659 267.275 309.166 268.192 307.075 268.192C305.71 268.192 304.579 267.808 303.683 267.04C302.83 266.229 302.339 265.099 302.211 263.648C299.736 266.848 296.451 268.448 292.355 268.448C289.24 268.448 286.744 267.531 284.867 265.696C283.032 263.861 282.115 261.664 282.115 259.104ZM287.747 258.656C287.747 260.619 288.43 262.24 289.795 263.52C291.203 264.8 292.867 265.44 294.787 265.44C297.56 265.44 300.014 264.075 302.147 261.344V251.552C301.891 251.552 301.699 251.531 301.571 251.488C300.078 251.189 298.67 251.04 297.347 251.04C295.086 251.04 292.91 251.659 290.819 252.896C288.771 254.133 287.747 256.053 287.747 258.656ZM316.407 259.168V245.152C316.407 242.891 316.002 240.011 315.191 236.512V236.32H321.655V241.696C324.556 237.856 328.034 235.936 332.087 235.936C334.988 235.936 337.442 236.832 339.447 238.624C341.452 240.373 342.455 243.125 342.455 246.88V259.168C342.455 261.429 342.86 264.309 343.671 267.808V268H335.991V267.808C336.802 264.309 337.207 261.429 337.207 259.168V247.456C337.207 244.853 336.524 242.891 335.159 241.568C333.794 240.203 332.108 239.52 330.103 239.52C327.244 239.52 324.428 240.907 321.655 243.68V259.168C321.655 261.429 322.06 264.309 322.871 267.808V268H315.191V267.808C316.002 264.309 316.407 261.429 316.407 259.168Z" fill="#FCF9F5"/>
<rect x="243" y="278" width="54" height="3" fill="#FCF9F5"/>
<path d="M191.5 69C191.5 130.856 125.856 191.5 64 191.5C2.14411 191.5 -229 -32.1441 -229 -94C-229 -155.856 -94.3559 -166 -32.5 -166C29.3559 -166 191.5 7.14411 191.5 69Z" fill="#FCF6E4"/>
<path d="M206.174 -9.68808C215.406 19.6478 208.99 53.6433 192.88 82.6441C176.769 111.644 151.006 135.572 121.654 144.809C114.397 147.093 103.548 146.893 90.0161 144.622C76.503 142.353 60.3818 138.031 42.6197 132.133C7.09702 120.338 -34.9442 102.252 -75.7297 81.7397C-116.515 61.2272 -156.03 38.2953 -186.501 16.8117C-201.738 6.06932 -214.703 -4.30383 -224.434 -13.8248C-234.178 -23.3591 -240.627 -31.9897 -242.91 -39.242C-247.488 -53.7893 -243.213 -67.8166 -233.209 -81.0185C-223.198 -94.23 -207.482 -106.565 -189.303 -117.661C-152.952 -139.85 -106.898 -157.002 -77.4124 -166.281C-70.1378 -168.57 -60.5394 -168.79 -49.2381 -167.271C-37.9448 -165.753 -24.9917 -162.505 -11.0302 -157.895C16.8923 -148.677 48.805 -134.027 79.4638 -116.951C110.122 -99.8739 139.511 -80.3785 162.388 -61.4746C173.826 -52.0225 183.629 -42.7247 191.148 -33.9573C198.671 -25.1838 203.882 -16.9704 206.174 -9.68808Z" stroke="#A2BCCA"/>
<path d="M678.809 568.79C621.242 642.279 599.665 559.292 489.301 486.023C451.044 466.83 340.567 512.655 381.694 359.316C405.9 317.758 490.765 360.894 529.023 380.087C582.208 404.532 741.965 495.309 678.809 568.79Z" fill="#FCF6E4"/>
<path d="M715.737 532.93L715.733 532.941L715.729 532.952C708.49 555.102 700.068 567.16 689.604 572.437C679.143 577.712 666.491 576.288 650.577 571.065C639.703 567.497 627.383 562.185 613.284 556.105C606.75 553.287 599.834 550.305 592.502 547.255C569.372 537.633 542.165 527.366 509.942 519.566L509.912 519.559L509.882 519.556C504.487 518.925 498.397 519.657 491.869 521.087C485.374 522.509 478.409 524.631 471.225 526.82L471.108 526.855C456.632 531.266 441.271 535.931 426.824 535.836C412.418 535.742 398.94 530.915 388.187 516.318C377.413 501.693 369.343 477.217 365.911 437.748C368.031 426.143 375.404 418.124 386.01 412.691C396.651 407.24 410.518 404.41 425.494 403.209C454.846 400.855 488.282 404.768 509.624 407.266C510.058 407.317 510.487 407.367 510.911 407.417L510.92 407.418L510.928 407.418C540.072 409.82 599.889 418.702 648.121 438.291C672.243 448.088 693.408 460.54 706.408 476.15C719.38 491.726 724.232 510.454 715.737 532.93Z" stroke="#A2BCCA"/>
</g>
<defs>
<clipPath id="clip0_4_1693">
<rect width="540" height="500" fill="white"/>
</clipPath>
</defs>
</svg>
