<svg width="20" height="20" viewBox="0 0 20 20" fill="none" xmlns="http://www.w3.org/2000/svg">
<g clip-path="url(#clip0_4_1326)">
<path fill-rule="evenodd" clip-rule="evenodd" d="M14.541 7.62532L12.4023 8.13314C11.9385 6.91732 11.1637 6.30534 10.0765 6.30534C9.24317 6.30534 8.58724 6.62598 8.11524 7.27214C7.63835 7.91341 7.40234 8.77441 7.40234 9.84375C7.40234 10.6852 7.5 11.3997 7.7002 11.9792C7.90039 12.5586 8.19499 12.9899 8.58236 13.2845C8.96973 13.5742 9.43359 13.7207 9.97233 13.7207C11.1719 13.7207 11.9906 12.972 12.4284 11.4746L14.541 12.1924C13.846 14.4564 12.3047 15.5892 9.92025 15.5892C9.06901 15.5892 8.27149 15.3792 7.53581 14.9609C6.80013 14.5459 6.21257 13.9095 5.7666 13.0583C5.32552 12.2021 5.10254 11.1865 5.10254 10.0016C5.10254 8.89648 5.30762 7.92969 5.71777 7.09635C6.12305 6.2679 6.71224 5.62174 7.47396 5.15788C8.23568 4.69889 9.12761 4.46777 10.1563 4.46777C12.3128 4.46452 13.7744 5.51758 14.541 7.62532ZM10 0C11.3639 0 12.6563 0.253906 13.8721 0.761719C15.0846 1.27441 16.154 1.99219 17.0801 2.91829C18.0078 3.8444 18.724 4.91536 19.2367 6.1263C19.7445 7.34212 19.9984 8.63118 19.9984 9.99837C19.9984 11.7904 19.5475 13.457 18.6475 14.9902C17.7474 16.5283 16.53 17.7441 14.9984 18.6361C13.4652 19.528 11.7985 19.9723 9.99837 19.9723C8.17057 19.9723 6.49089 19.5264 4.96745 18.6393C3.43913 17.7523 2.22656 16.5397 1.33626 15.0033C0.445964 13.4717 0 11.8001 0 10C0 8.1901 0.445964 6.5153 1.33626 4.9821C2.22819 3.44401 3.44401 2.22819 4.9821 1.33626C6.5153 0.445964 8.1901 0 10 0ZM10 1.96126C8.52865 1.96126 7.17936 2.32259 5.95866 3.04362C4.73796 3.76628 3.76628 4.74121 3.0485 5.97168C2.33073 7.2054 1.9694 8.54818 1.9694 10C1.9694 11.4616 2.33073 12.8027 3.0485 14.0234C3.76628 15.249 4.73796 16.2158 5.96354 16.9336C7.19401 17.6514 8.53516 18.0127 10.0016 18.0127C11.4551 18.0127 12.7962 17.6562 14.0348 16.9434C15.2686 16.2305 16.2451 15.2637 16.9629 14.0381C17.6807 12.8174 18.042 11.4714 18.042 10C18.042 8.55631 17.6807 7.21517 16.9596 5.97982C16.237 4.74609 15.262 3.76465 14.0267 3.04362C12.7946 2.32259 11.4535 1.96126 10 1.96126Z" fill="black"/>
</g>
<defs>
<clipPath id="clip0_4_1326">
<rect width="20" height="19.974" fill="white"/>
</clipPath>
</defs>
</svg>
